<?xml version="1.0" encoding="UTF-8" standalone="no"?>
<!-- Created with Inkscape (http://www.inkscape.org/) -->

<svg
   width="1920"
   height="1080"
   viewBox="0 0 1920 1080"
   version="1.1"
   id="svg1"
   inkscape:version="1.4.3 (0d15f75, 2025-12-25)"
   sodipodi:docname="Robot.svg"
   xmlns:inkscape="http://www.inkscape.org/namespaces/inkscape"
   xmlns:sodipodi="http://sodipodi.sourceforge.net/DTD/sodipodi-0.dtd"
   xmlns:xlink="http://www.w3.org/1999/xlink"
   xmlns="http://www.w3.org/2000/svg"
   xmlns:svg="http://www.w3.org/2000/svg">
  <sodipodi:namedview
     id="namedview1"
     pagecolor="#ffffff"
     bordercolor="#111111"
     borderopacity="1"
     inkscape:showpageshadow="0"
     inkscape:pageopacity="0"
     inkscape:pagecheckerboard="1"
     inkscape:deskcolor="#d1d1d1"
     inkscape:document-units="px"
     inkscape:zoom="0.025710888"
     inkscape:cx="-13321.205"
     inkscape:cy="-8109.4048"
     inkscape:window-width="1146"
     inkscape:window-height="802"
     inkscape:window-x="320"
     inkscape:window-y="38"
     inkscape:window-maximized="0"
     inkscape:current-layer="layer1" />
  <defs
     id="defs1">
    <linearGradient
       id="linearGradient59"
       inkscape:collect="always">
      <stop
         style="stop-color:#0d0d0d;stop-opacity:1;"
         offset="0"
         id="stop60" />
      <stop
         style="stop-color:#7aade0;stop-opacity:1;"
         offset="0.12462006"
         id="stop62" />
      <stop
         style="stop-color:#0d0d0d;stop-opacity:1"
         offset="0.42483151"
         id="stop63" />
      <stop
         style="stop-color:#7aade0;stop-opacity:1;"
         offset="0.83066303"
         id="stop64" />
      <stop
         style="stop-color:#0d0d0d;stop-opacity:1"
         offset="1"
         id="stop61" />
    </linearGradient>
    <linearGradient
       id="linearGradient48"
       inkscape:collect="always">
      <stop
         style="stop-color:#04040e;stop-opacity:1;"
         offset="0"
         id="stop48" />
      <stop
         style="stop-color:#7aade0;stop-opacity:1;"
         offset="0.44782278"
         id="stop49" />
      <stop
         style="stop-color:#0d0d0d;stop-opacity:1"
         offset="0.73354328"
         id="stop55" />
    </linearGradient>
    <linearGradient
       id="linearGradient32"
       inkscape:collect="always">
      <stop
         style="stop-color:#2abed9;stop-opacity:1"
         offset="0.11285666"
         id="stop33" />
      <stop
         style="stop-color:#00080b;stop-opacity:1;"
         offset="0.41033435"
         id="stop31" />
      <stop
         style="stop-color:#25d9c8;stop-opacity:1"
         offset="1"
         id="stop32" />
    </linearGradient>
    <linearGradient
       id="linearGradient28"
       inkscape:collect="always">
      <stop
         style="stop-color:#04040e;stop-opacity:1"
         offset="0.54711246"
         id="stop27" />
      <stop
         style="stop-color:#f92672;stop-opacity:1;"
         offset="1"
         id="stop28" />
    </linearGradient>
    <linearGradient
       id="linearGradient25"
       inkscape:collect="always">
      <stop
         style="stop-color:#00080b;stop-opacity:1;"
         offset="0.73252279"
         id="stop24" />
      <stop
         style="stop-color:#f92672;stop-opacity:1"
         offset="1"
         id="stop25" />
    </linearGradient>
    <linearGradient
       id="linearGradient22"
       inkscape:collect="always">
      <stop
         style="stop-color:#7aade0;stop-opacity:1;"
         offset="0"
         id="stop23" />
      <stop
         style="stop-color:#16212a;stop-opacity:1;"
         offset="1"
         id="stop22" />
    </linearGradient>
    <linearGradient
       id="linearGradient19"
       inkscape:collect="always">
      <stop
         style="stop-color:#00080b;stop-opacity:1;"
         offset="0.54711246"
         id="stop21" />
      <stop
         style="stop-color:#f92672;stop-opacity:1"
         offset="1"
         id="stop20" />
    </linearGradient>
    <linearGradient
       id="linearGradient17"
       inkscape:collect="always">
      <stop
         style="stop-color:#1e3040;stop-opacity:1;"
         offset="0"
         id="stop17" />
      <stop
         style="stop-color:#7aade0;stop-opacity:1;"
         offset="0.53395623"
         id="stop19" />
      <stop
         style="stop-color:#16212a;stop-opacity:1"
         offset="1"
         id="stop18" />
    </linearGradient>
    <linearGradient
       id="swatch11"
       inkscape:swatch="solid">
      <stop
         style="stop-color:#000000;stop-opacity:1;"
         offset="0"
         id="stop11" />
    </linearGradient>
    <linearGradient
       id="swatch10"
       inkscape:swatch="solid">
      <stop
         style="stop-color:#000000;stop-opacity:1;"
         offset="0"
         id="stop10" />
    </linearGradient>
    <linearGradient
       inkscape:collect="always"
       xlink:href="#linearGradient17"
       id="linearGradient18"
       x1="-10962.152"
       y1="-9496.1328"
       x2="-9691.3057"
       y2="-9375.293"
       gradientUnits="userSpaceOnUse"
       gradientTransform="matrix(1.1027483,0,0,0.82188455,1094.2494,-1542.382)" />
    <radialGradient
       inkscape:collect="always"
       xlink:href="#linearGradient25"
       id="radialGradient21"
       cx="-10584.133"
       cy="-9977.9424"
       fx="-10584.133"
       fy="-9977.9424"
       r="924.97497"
       gradientTransform="matrix(0.92690768,0,0,0.30990532,-787.28137,-6827.1928)"
       gradientUnits="userSpaceOnUse" />
    <radialGradient
       inkscape:collect="always"
       xlink:href="#linearGradient22"
       id="radialGradient23"
       cx="-10572.203"
       cy="-5326.8916"
       fx="-10572.203"
       fy="-5326.8916"
       r="1944.418"
       gradientTransform="matrix(1,0,0,0.95967272,639.67646,-2636.0932)"
       gradientUnits="userSpaceOnUse" />
    <radialGradient
       inkscape:collect="always"
       xlink:href="#linearGradient19"
       id="radialGradient21-0"
       cx="-10578.335"
       cy="-10064.649"
       fx="-10578.335"
       fy="-10064.649"
       r="924.97498"
       gradientTransform="matrix(0.51644263,0,0,0.19632522,-4617.8938,6405.9208)"
       gradientUnits="userSpaceOnUse" />
    <radialGradient
       inkscape:collect="always"
       xlink:href="#linearGradient28"
       id="radialGradient21-0-2"
       cx="-10532.862"
       cy="-9624.9023"
       fx="-10532.862"
       fy="-9624.9023"
       r="924.97498"
       gradientTransform="matrix(0.66569724,0.0300612,-0.03374899,0.25771968,2436.3939,-11402.163)"
       gradientUnits="userSpaceOnUse" />
    <radialGradient
       inkscape:collect="always"
       xlink:href="#linearGradient32"
       id="radialGradient21-0-5"
       cx="-10557.014"
       cy="-9696.7744"
       fx="-10557.014"
       fy="-9696.7744"
       r="924.97498"
       gradientTransform="matrix(0.35704385,0.03031889,-0.02517344,0.26497617,-2774.8085,15128.823)"
       gradientUnits="userSpaceOnUse" />
    <radialGradient
       inkscape:collect="always"
       xlink:href="#linearGradient32"
       id="radialGradient21-0-5-4"
       cx="-10557.014"
       cy="-9696.7744"
       fx="-10557.014"
       fy="-9696.7744"
       r="924.97498"
       gradientTransform="matrix(0.35762793,0.03143194,-0.02521462,0.27470385,-7752.9888,-5157.6282)"
       gradientUnits="userSpaceOnUse" />
    <radialGradient
       inkscape:collect="always"
       xlink:href="#linearGradient22"
       id="radialGradient23-4-1"
       cx="-10572.203"
       cy="-5326.8916"
       fx="-10572.203"
       fy="-5326.8916"
       r="1944.418"
       gradientTransform="matrix(0.41263739,0,0,0.41928459,-8515.5751,-6460.4765)"
       gradientUnits="userSpaceOnUse" />
    <radialGradient
       inkscape:collect="always"
       xlink:href="#linearGradient22"
       id="radialGradient23-4-1-0"
       cx="-10572.203"
       cy="-5326.8916"
       fx="-10572.203"
       fy="-5326.8916"
       r="1944.418"
       gradientTransform="matrix(0.21744902,0,0,0.22402085,-11006.652,-6639.798)"
       gradientUnits="userSpaceOnUse" />
    <radialGradient
       inkscape:collect="always"
       xlink:href="#linearGradient22"
       id="radialGradient23-4-1-0-3"
       cx="-10572.203"
       cy="-5326.8916"
       fx="-10572.203"
       fy="-5326.8916"
       r="1944.418"
       gradientTransform="matrix(0.21744902,0,0,0.22402085,-11385.76,-6079.4353)"
       gradientUnits="userSpaceOnUse" />
    <radialGradient
       inkscape:collect="always"
       xlink:href="#linearGradient22"
       id="radialGradient23-4-1-0-3-9"
       cx="-10572.203"
       cy="-5326.8916"
       fx="-10572.203"
       fy="-5326.8916"
       r="1944.418"
       gradientTransform="matrix(0.21744902,0,0,0.22402085,-11892.283,-5645.7151)"
       gradientUnits="userSpaceOnUse" />
    <radialGradient
       inkscape:collect="always"
       xlink:href="#linearGradient22"
       id="radialGradient23-4-1-0-3-9-5"
       cx="-10572.203"
       cy="-5326.8916"
       fx="-10572.203"
       fy="-5326.8916"
       r="1944.418"
       gradientTransform="matrix(0.21744902,0,0,0.22402085,-12325.898,-5176.1029)"
       gradientUnits="userSpaceOnUse" />
    <linearGradient
       inkscape:collect="always"
       xlink:href="#linearGradient48"
       id="linearGradient49"
       x1="-8481.8223"
       y1="-12032.011"
       x2="-6300.4053"
       y2="-13189.242"
       gradientUnits="userSpaceOnUse"
       gradientTransform="translate(-22777.209,4614.8519)" />
    <linearGradient
       inkscape:collect="always"
       xlink:href="#linearGradient59"
       id="linearGradient61"
       x1="-9433.0352"
       y1="-12823.462"
       x2="-5996.5278"
       y2="-13581.074"
       gradientUnits="userSpaceOnUse"
       gradientTransform="translate(-22777.209,4614.8519)" />
    <radialGradient
       inkscape:collect="always"
       xlink:href="#linearGradient22"
       id="radialGradient23-4-1-0-2"
       cx="-10572.203"
       cy="-5326.8916"
       fx="-10572.203"
       fy="-5326.8916"
       r="1944.418"
       gradientTransform="matrix(0.21744902,0,0,0.22402085,-3937.6865,-3898.6368)"
       gradientUnits="userSpaceOnUse" />
    <radialGradient
       inkscape:collect="always"
       xlink:href="#linearGradient22"
       id="radialGradient23-4-1-0-3-4"
       cx="-10572.203"
       cy="-5326.8916"
       fx="-10572.203"
       fy="-5326.8916"
       r="1944.418"
       gradientTransform="matrix(0.21744902,0,0,0.22402085,-4316.7945,-3338.2741)"
       gradientUnits="userSpaceOnUse" />
    <radialGradient
       inkscape:collect="always"
       xlink:href="#linearGradient22"
       id="radialGradient23-4-1-0-3-9-3"
       cx="-10572.203"
       cy="-5326.8916"
       fx="-10572.203"
       fy="-5326.8916"
       r="1944.418"
       gradientTransform="matrix(0.21744902,0,0,0.22402085,-4823.3175,-2904.5539)"
       gradientUnits="userSpaceOnUse" />
    <radialGradient
       inkscape:collect="always"
       xlink:href="#linearGradient22"
       id="radialGradient23-4-1-0-3-9-5-9"
       cx="-10572.203"
       cy="-5326.8916"
       fx="-10572.203"
       fy="-5326.8916"
       r="1944.418"
       gradientTransform="matrix(0.21744902,0,0,0.22402085,-5256.9325,-2434.9417)"
       gradientUnits="userSpaceOnUse" />
    <linearGradient
       inkscape:collect="always"
       xlink:href="#linearGradient59"
       id="linearGradient61-0"
       x1="-9433.0352"
       y1="-12823.462"
       x2="-5996.5278"
       y2="-13581.074"
       gradientUnits="userSpaceOnUse"
       gradientTransform="translate(-22777.209,4614.8519)" />
    <linearGradient
       inkscape:collect="always"
       xlink:href="#linearGradient48"
       id="linearGradient49-3"
       x1="-8481.8223"
       y1="-12032.011"
       x2="-6300.4053"
       y2="-13189.242"
       gradientUnits="userSpaceOnUse"
       gradientTransform="translate(-22777.209,4614.8519)" />
    <radialGradient
       inkscape:collect="always"
       xlink:href="#linearGradient22"
       id="radialGradient23-4-1-6"
       cx="-10572.203"
       cy="-5326.8916"
       fx="-10572.203"
       fy="-5326.8916"
       r="1944.418"
       gradientTransform="matrix(0.41263739,0,0,0.41928459,-1446.6096,-3719.3153)"
       gradientUnits="userSpaceOnUse" />
  </defs>
  <g
     inkscape:label="Robot"
     inkscape:groupmode="layer"
     id="layer1">
    <g
       id="g85"
       inkscape:label="Body"
       transform="translate(146.96377,1238.6946)">
      <ellipse
         style="opacity:1;fill:url(#radialGradient23);stroke:#16212a;stroke-width:35.4;stroke-dasharray:none;stroke-opacity:1"
         id="path22"
         cx="-10606.979"
         cy="-7183.3892"
         rx="1926.718"
         ry="1848.3049" />
      <ellipse
         style="fill:url(#radialGradient21-0);stroke:#16212a;stroke-width:36.3702;stroke-dasharray:none;stroke-opacity:1"
         id="path19-2"
         cx="-10091.127"
         cy="4387.8589"
         rx="467.32199"
         ry="172.01118"
         transform="matrix(0.48049341,0.87699834,-0.97597084,0.21790115,0,0)" />
      <ellipse
         style="fill:url(#radialGradient21-0-2);stroke:#04040e;stroke-width:20.0794;stroke-dasharray:none;stroke-opacity:1"
         id="path19-2-7"
         cx="-4284.5249"
         cy="-14322.3"
         rx="499.98361"
         ry="152.92207"
         transform="matrix(-0.39333297,0.91939609,0.96147016,0.27490931,0,0)" />
    </g>
    <g
       id="g91"
       inkscape:label="Arm-R"
       transform="matrix(0.48672807,-0.85897304,0.81617735,0.51224932,-255.74503,-9536.0185)">
      <ellipse
         style="fill:url(#radialGradient23-4-1-6);stroke:#16212a;stroke-width:15.0307;stroke-dasharray:none;stroke-opacity:1"
         id="path22-6-3-2"
         cx="-6087.4028"
         cy="-5706.0459"
         rx="795.03589"
         ry="807.53137" />
      <ellipse
         style="fill:url(#radialGradient23-4-1-0-2);stroke:#16212a;stroke-width:7.9756;stroke-dasharray:none;stroke-opacity:1"
         id="path22-6-3-8-7"
         cx="-6383.2612"
         cy="-4960.1338"
         rx="418.96292"
         ry="431.4584" />
      <ellipse
         style="fill:url(#radialGradient23-4-1-0-3-4);stroke:#16212a;stroke-width:7.9756;stroke-dasharray:none;stroke-opacity:1"
         id="path22-6-3-8-0-6"
         cx="-6762.3687"
         cy="-4399.7705"
         rx="418.96292"
         ry="431.4584" />
    </g>
    <g
       id="g90"
       inkscape:label="Forearm-R"
       transform="rotate(-97.382374,-7670.3474,-5134.7485)">
      <ellipse
         style="fill:url(#radialGradient23-4-1-0-3-9-3);stroke:#16212a;stroke-width:7.9756;stroke-dasharray:none;stroke-opacity:1"
         id="path22-6-3-8-0-0-7"
         cx="-7268.8921"
         cy="-3966.05"
         rx="418.96292"
         ry="431.4584" />
      <ellipse
         style="fill:url(#radialGradient23-4-1-0-3-9-5-9);stroke:#16212a;stroke-width:7.9756;stroke-dasharray:none;stroke-opacity:1"
         id="path22-6-3-8-0-0-8-7"
         cx="-7702.5073"
         cy="-3496.4377"
         rx="418.96292"
         ry="431.4584" />
    </g>
    <g
       id="g84-2"
       transform="matrix(-0.628107,0,0,-0.96361253,-24351.509,-12356.091)"
       inkscape:label="Hand-R">
      <path
         id="path43-0"
         style="opacity:1;fill:url(#linearGradient61-0);stroke:#04040e;stroke-width:35;stroke-dasharray:none;stroke-opacity:1"
         d="m -30603.877,-9273.0679 c -138.754,0 -276.911,9.02 -410.944,26.83 v 559.404 l -0.228,-5.881 266.683,266.108 204.336,-28.784 c 281.349,6.494 741.714,132.944 674.246,256.641 -205.445,85.015 -486.487,132.99 -779.99,133.147 -258.492,-0.113 -508.539,-37.338 -705.826,-105.08 l -11.988,4.221 -24.02,-17.145 v 0 c -17.112,-6.42 -33.713,-13.06 -49.779,-19.91 4.478,-1.997 9,-3.977 13.566,-5.94 l -293.998,-209.853 -18.875,-616.106 c -250.819,127.486 -407.249,293.373 -443.797,470.627 h -4.281 v 24.553 c -2.647,18.545 -3.972,37.13 -3.973,55.721 0,18.593 1.325,37.181 3.973,55.728 l 43.865,628.481 c 59.902,183.285 246.476,349.854 526.472,470.023 279.997,120.169 635.225,186.1308 1002.38,186.1308 364.407,0 717.158,-64.9798 996.271,-183.5228 279.114,-118.544 499.011,-295.978 562.17,-477.571 0,0 74.893,-418.139 74.892,-692.181 0,-209.137 -199.677,-396.796 -497.649,-544.678 -297.971,-147.882 -702.107,-230.961 -1123.503,-230.961 z"
         sodipodi:nodetypes="sccccccccccscccccccsccssscssss" />
      <path
         id="path43-7-0"
         style="fill:url(#linearGradient49-3);stroke:#04040e;stroke-width:35;stroke-dasharray:none;stroke-opacity:1"
         d="m -30585.106,-8696.1519 c -155.704,0 -279.15,-8.274 -428.197,14.08 l 290.741,303.512 c 707.29,-65.174 883.727,209.367 944.942,274.139 261.949,277.17 -603.643,900.852 -1627.096,485.753 -205.202,-83.227 -320.483,-196.107 -320.484,-313.808 0,-126.557 133.22,-247.093 366.159,-331.299 l -349.467,-151.881 c -208.623,33.246 -465.47,222.151 -465.469,508.057 0,209.137 167.399,409.708 465.37,557.59 297.971,147.882 702.106,230.9608 1123.501,230.9608 667.401,0 1556.594,-348.4678 1556.594,-830.5138 0,-209.137 -135.118,-367.746 -433.09,-515.628 -297.972,-147.883 -702.108,-230.962 -1123.504,-230.962 z"
         sodipodi:nodetypes="sccsssccssssss" />
      <path
         id="rect46-1-3-7"
         style="fill:#5a7a96;stroke:#04040e;stroke-width:41.1216;stroke-dasharray:none;stroke-opacity:1"
         d="m -31385.017,-8838.1929 -355.276,-202.534 24.571,593.523 366.93,169.181 z"
         sodipodi:nodetypes="ccccc" />
    </g>
    <g
       id="g87"
       inkscape:label="Arm-L"
       transform="translate(162.31053,1318.7731)">
      <ellipse
         style="fill:url(#radialGradient23-4-1);stroke:#16212a;stroke-width:15.0307;stroke-dasharray:none;stroke-opacity:1"
         id="path22-6-3"
         cx="-13156.368"
         cy="-8447.207"
         rx="795.03589"
         ry="807.53137" />
      <ellipse
         style="fill:url(#radialGradient23-4-1-0);stroke:#16212a;stroke-width:7.9756;stroke-dasharray:none;stroke-opacity:1"
         id="path22-6-3-8"
         cx="-13452.227"
         cy="-7701.2949"
         rx="418.96292"
         ry="431.4584" />
      <ellipse
         style="fill:url(#radialGradient23-4-1-0-3);stroke:#16212a;stroke-width:7.9756;stroke-dasharray:none;stroke-opacity:1"
         id="path22-6-3-8-0"
         cx="-13831.334"
         cy="-7140.9316"
         rx="418.96292"
         ry="431.4584" />
    </g>
    <g
       id="g88"
       inkscape:label="Forearm-L"
       transform="translate(108.11018,1247.8348)">
      <ellipse
         style="fill:url(#radialGradient23-4-1-0-3-9);stroke:#16212a;stroke-width:7.9756;stroke-dasharray:none;stroke-opacity:1"
         id="path22-6-3-8-0-0"
         cx="-14337.857"
         cy="-6707.2114"
         rx="418.96292"
         ry="431.4584" />
      <ellipse
         style="fill:url(#radialGradient23-4-1-0-3-9-5);stroke:#16212a;stroke-width:7.9756;stroke-dasharray:none;stroke-opacity:1"
         id="path22-6-3-8-0-0-8"
         cx="-14771.473"
         cy="-6237.5991"
         rx="418.96292"
         ry="431.4584" />
    </g>
    <g
       id="g89"
       inkscape:label="Hand-L"
       transform="matrix(0.54209123,0,0,-0.96450093,1468.2911,-11810.834)">
      <path
         id="path43"
         style="opacity:1;fill:url(#linearGradient61);stroke:#04040e;stroke-width:35;stroke-dasharray:none;stroke-opacity:1"
         d="m -30603.877,-9273.0679 c -138.754,0 -276.911,9.02 -410.944,26.83 v 559.404 l -0.228,-5.881 266.683,266.108 204.336,-28.784 c 281.349,6.494 741.714,132.944 674.246,256.641 -205.445,85.015 -486.487,132.99 -779.99,133.147 -258.492,-0.113 -508.539,-37.338 -705.826,-105.08 l -11.988,4.221 -24.02,-17.145 v 0 c -17.112,-6.42 -33.713,-13.06 -49.779,-19.91 4.478,-1.997 9,-3.977 13.566,-5.94 l -293.998,-209.853 -18.875,-616.106 c -250.819,127.486 -407.249,293.373 -443.797,470.627 h -4.281 v 24.553 c -2.647,18.545 -3.972,37.13 -3.973,55.721 0,18.593 1.325,37.181 3.973,55.728 l 43.865,628.481 c 59.902,183.285 246.476,349.854 526.472,470.023 279.997,120.169 635.225,186.1308 1002.38,186.1308 364.407,0 717.158,-64.9798 996.271,-183.5228 279.114,-118.544 499.011,-295.978 562.17,-477.571 0,0 74.893,-418.139 74.892,-692.181 0,-209.137 -199.677,-396.796 -497.649,-544.678 -297.971,-147.882 -702.107,-230.961 -1123.503,-230.961 z"
         sodipodi:nodetypes="sccccccccccscccccccsccssscssss" />
      <path
         id="path43-7"
         style="fill:url(#linearGradient49);stroke:#04040e;stroke-width:35;stroke-dasharray:none;stroke-opacity:1"
         d="m -30585.106,-8696.1519 c -155.704,0 -279.15,-8.274 -428.197,14.08 l 290.741,303.512 c 707.29,-65.174 883.727,209.367 944.942,274.139 261.949,277.17 -603.643,900.852 -1627.096,485.753 -205.202,-83.227 -320.483,-196.107 -320.484,-313.808 0,-126.557 133.22,-247.093 366.159,-331.299 l -349.467,-151.881 c -208.623,33.246 -465.47,222.151 -465.469,508.057 0,209.137 167.399,409.708 465.37,557.59 297.971,147.882 702.106,230.9608 1123.501,230.9608 667.401,0 1556.594,-348.4678 1556.594,-830.5138 0,-209.137 -135.118,-367.746 -433.09,-515.628 -297.972,-147.883 -702.108,-230.962 -1123.504,-230.962 z"
         sodipodi:nodetypes="sccsssccssssss" />
      <path
         id="rect46-1-3"
         style="fill:#5a7a96;stroke:#04040e;stroke-width:41.1216;stroke-dasharray:none;stroke-opacity:1"
         d="m -31385.017,-8838.1929 -355.276,-202.534 24.571,593.523 366.93,169.181 z"
         sodipodi:nodetypes="ccccc" />
    </g>
    <g
       id="g86"
       inkscape:label="Head"
       transform="translate(127.06099,614.12813)">
      <path
         id="path13"
         style="opacity:1;fill:url(#linearGradient18);stroke:#1a2530;stroke-width:35;stroke-dasharray:none;stroke-opacity:1"
         d="m -10582.662,-10369.072 a 1136.1144,377.78194 0 0 0 -1136.115,377.7809 1136.1144,377.78194 0 0 0 11.188,52.8891 l -7.508,0.092 388.353,1151.0154 5.234,0.034 a 725.90213,299.33059 0 0 0 710.919,238.8297 725.90213,299.33059 0 0 0 725.9041,-299.3313 725.90213,299.33059 0 0 0 -0.097,-4.9024 l 429.1931,-1076.3619 -6.427,-0.1315 a 1136.1144,377.78194 0 0 0 15.4708,-62.1328 1136.1144,377.78194 0 0 0 -1136.116,-377.7812 z" />
      <ellipse
         style="opacity:1;fill:url(#radialGradient21);stroke:#16212a;stroke-width:35;stroke-dasharray:none;stroke-opacity:1"
         id="path19"
         cx="-10610.604"
         cy="-10012.765"
         rx="838.74628"
         ry="271.52487" />
      <ellipse
         style="fill:url(#radialGradient21-0-5);stroke:#16212a;stroke-width:24.4353;stroke-dasharray:none;stroke-opacity:1"
         id="path19-2-1"
         cx="-6309.7124"
         cy="12137.764"
         rx="241.57495"
         ry="150.19849"
         transform="matrix(-0.25358355,0.96731349,-0.97140791,-0.23741665,0,0)" />
      <ellipse
         style="fill:url(#radialGradient21-0-5-4);stroke:#16212a;stroke-width:24.9001;stroke-dasharray:none;stroke-opacity:1"
         id="path19-2-1-3"
         cx="-11293.675"
         cy="-8258.4941"
         rx="241.97014"
         ry="155.71249"
         transform="matrix(0.26302262,0.96478967,0.97347685,-0.22878552,0,0)" />
    </g>
  </g>
</svg>
